 <svg xmlns="http://www.w3.org/2000/svg" viewBox="0 0 1920 1080">
              <defs>
                <radialGradient id="sky" cx="50%" cy="30%">
                  <stop offset="0%" style="stop-color:#1e3a8a"/>
                  <stop offset="70%" style="stop-color:#1e40af"/>
                  <stop offset="100%" style="stop-color:#1f2937"/>
                </radialGradient>
                <linearGradient id="ground" x1="0%" y1="0%" x2="0%" y2="100%">
                  <stop offset="0%" style="stop-color:#374151"/>
                  <stop offset="100%" style="stop-color:#111827"/>
                </linearGradient>
              </defs>
              
              <!-- Sky -->
              <rect width="1920" height="600" fill="url(#sky)"/>
              
              <!-- Ground -->
              <rect y="600" width="1920" height="480" fill="url(#ground)"/>
              
              <!-- Mountains -->
              <polygon points="0,500 300,200 600,350 900,150 1200,300 1500,100 1800,250 1920,200 1920,600 0,600" fill="#2d3748" opacity="0.8"/>
              
              <!-- Christmas Trees Background -->
              <polygon points="200,450 250,350 300,450" fill="#059669"/>
              <polygon points="500,480 570,320 640,480" fill="#047857"/>
              <polygon points="800,460 860,300 920,460" fill="#065f46"/>
              <polygon points="1100,470 1150,340 1200,470" fill="#059669"/>
              <polygon points="1400,450 1470,290 1540,450" fill="#047857"/>
              
              <!-- Tree Trunks -->
              <rect x="240" y="450" width="20" height="40" fill="#92400e"/>
              <rect x="560" y="480" width="20" height="40" fill="#92400e"/>
              <rect x="850" y="460" width="20" height="40" fill="#92400e"/>
              <rect x="1140" y="470" width="20" height="40" fill="#92400e"/>
              <rect x="1460" y="450" width="20" height="40" fill="#92400e"/>
              
              <!-- Stars -->
              <circle cx="150" cy="100" r="2" fill="white" opacity="0.8"/>
              <circle cx="300" cy="80" r="1.5" fill="white" opacity="0.9"/>
              <circle cx="450" cy="120" r="2" fill="white" opacity="0.7"/>
              <circle cx="600" cy="90" r="1" fill="white" opacity="0.8"/>
              <circle cx="750" cy="110" r="2" fill="white" opacity="0.9"/>
              <circle cx="900" cy="70" r="1.5" fill="white" opacity="0.7"/>
              <circle cx="1050" cy="130" r="1" fill="white" opacity="0.8"/>
              <circle cx="1200" cy="85" r="2" fill="white" opacity="0.9"/>
              <circle cx="1350" cy="115" r="1.5" fill="white" opacity="0.7"/>
              <circle cx="1500" cy="95" r="1" fill="white" opacity="0.8"/>
              <circle cx="1650" cy="125" r="2" fill="white" opacity="0.9"/>
              <circle cx="1800" cy="75" r="1.5" fill="white" opacity="0.8"/>
              
              <!-- Snow -->
              <circle cx="100" cy="200" r="3" fill="white" opacity="0.6"/>
              <circle cx="250" cy="180" r="2" fill="white" opacity="0.7"/>
              <circle cx="400" cy="220" r="2.5" fill="white" opacity="0.5"/>
              <circle cx="550" cy="160" r="2" fill="white" opacity="0.8"/>
              <circle cx="700" cy="240" r="3" fill="white" opacity="0.6"/>
              <circle cx="850" cy="190" r="2" fill="white" opacity="0.7"/>
              <circle cx="1000" cy="210" r="2.5" fill="white" opacity="0.5"/>
              <circle cx="1150" cy="170" r="2" fill="white" opacity="0.8"/>
              <circle cx="1300" cy="230" r="3" fill="white" opacity="0.6"/>
              <circle cx="1450" cy="185" r="2" fill="white" opacity="0.7"/>
              <circle cx="1600" cy="205" r="2.5" fill="white" opacity="0.5"/>
              <circle cx="1750" cy="175" r="2" fill="white" opacity="0.8"/>
            </svg>